<svg width="86" height="86" viewBox="0 0 86 86" fill="none" xmlns="http://www.w3.org/2000/svg">
<path fill-rule="evenodd" clip-rule="evenodd" d="M48.0355 79.9983L48.808 79.8851L49.5546 79.8108L49.9101 79.7882L50.2495 79.7785L50.5695 79.7817L50.8636 79.7979L51.3322 79.8658L51.8041 79.9756L52.2695 80.1243L52.735 80.3053L53.1907 80.5186L53.6335 80.7578L54.0601 81.0229L54.4674 81.304L54.8423 81.6079L55.1978 81.9214L55.5307 82.2414L55.8313 82.5646L56.0996 82.891L56.3291 83.2142L56.5198 83.5342L56.5973 83.6893L56.6652 83.8445L55.9218 84.1063L55.117 84.339L54.2702 84.5394L53.3943 84.7107L52.5023 84.8464L51.6134 84.9434L50.7408 84.9983L49.9004 85.0145L49.5223 84.9983L49.1409 84.9402L48.7595 84.8432L48.3813 84.7107L48.0064 84.5458L47.6379 84.3519L47.2792 84.1257L46.9333 83.8768L46.5972 83.6021L46.2804 83.3047L45.9799 82.9912L45.7019 82.6583L45.4466 82.3125L45.2171 81.9537L45.0167 81.5885L44.8454 81.2135L44.7711 81.0552L44.6935 80.9162L44.6127 80.7966L44.5286 80.6899L44.2281 80.3473L44.1699 80.2665L44.1246 80.1793L44.1052 80.1373L44.0923 80.0888L44.0794 80.0403L44.0729 79.9853L44.0762 79.8722L44.0955 79.7397L44.1376 79.5878L44.2022 79.4133L44.6482 78.3758L45.1557 77.2898L45.7116 76.2426L45.9993 75.761L46.2934 75.3214L46.6295 74.8948L47.0044 74.4778L47.8545 73.6666L48.7918 72.9038L49.7808 72.2024L50.7698 71.5722L51.7169 71.0292L52.5766 70.5831L53.307 70.2502L52.0304 72.9103L51.2708 74.3744L50.3885 75.887L50.201 76.1682L49.9941 76.4527L49.7679 76.7338L49.5223 77.015L49.2605 77.293L48.9857 77.5677L48.391 78.1043L47.7123 78.6505L47.0949 79.09L46.4582 79.4973L45.731 79.9369L44.5351 80.6576L45.5468 80.4799L48.0355 79.9983ZM56.4066 76.7242L57.0918 76.472L57.7577 76.2555L58.0776 76.1682L58.3815 76.0907L58.6723 76.0325L58.9438 75.9905L59.3802 75.9614L59.8262 75.9711L60.2787 76.0163L60.728 76.0939L61.1772 76.1973L61.62 76.3298L62.0531 76.4882L62.4701 76.666L62.8612 76.8696L63.2361 77.0861L63.5916 77.3124L63.9181 77.5483L64.2154 77.794L64.4804 78.0428L64.7067 78.295L64.8037 78.421L64.8909 78.5503L64.2574 78.9317L63.5625 79.3001L62.8256 79.646L62.0564 79.9692L61.2677 80.2633L60.4759 80.5251L59.6905 80.7449L58.9277 80.9227L58.5818 80.9808L58.2263 81.0002L57.8643 80.9873L57.4991 80.942L57.1306 80.8645L56.7622 80.7578L56.4002 80.6221L56.0414 80.4605L55.6923 80.2762L55.353 80.0694L55.0298 79.8399L54.7227 79.5943L54.4318 79.3292L54.1668 79.048L53.9212 78.7539L53.7046 78.4469L53.6109 78.3176L53.5171 78.2045L53.4234 78.1107L53.3297 78.0299L53 77.7746L52.9354 77.7132L52.8772 77.6453L52.8546 77.6065L52.8319 77.5677L52.8158 77.5225L52.7996 77.4772L52.7834 77.3706L52.7802 77.2477L52.7931 77.1023L52.8222 76.931L53.0549 75.9032L53.3394 74.814L53.6723 73.7538L53.8565 73.2593L54.0504 72.8036L54.2864 72.3511L54.5579 71.8986L55.1946 70.9969L55.9218 70.121L56.704 69.2935L57.4991 68.5275L58.2683 67.852L58.9794 67.2799L59.587 66.8339L58.8663 69.5004L58.4202 70.9807L57.8675 72.5256L57.7447 72.8198L57.6025 73.1171L57.4409 73.4177L57.2664 73.7183L57.0725 74.0221L56.8656 74.3259L56.4131 74.9303L55.8863 75.5606L55.3982 76.081L54.8876 76.5722L54.2993 77.112L53.3329 77.9976L54.2217 77.6388L56.4066 76.7242ZM63.7177 73.13L64.3382 72.7325L64.9491 72.3705L65.2432 72.2121L65.5309 72.0699L65.8024 71.9471L66.0609 71.8469L66.4811 71.7208L66.9207 71.6271L67.3667 71.5689L67.8257 71.5431H68.2846L68.7436 71.5754L69.1961 71.6303L69.6389 71.7112L70.0623 71.821L70.4695 71.9503L70.8574 72.0925L71.2226 72.2509L71.562 72.4222L71.869 72.6064L72.1373 72.8036L72.2569 72.9038L72.3668 73.0105L71.8206 73.5244L71.2129 74.0415L70.5568 74.5457L69.8684 75.037L69.1541 75.5024L68.4268 75.9355L67.7029 76.3266L66.9918 76.6724L66.6653 76.805L66.3195 76.9051L65.964 76.973L65.5955 77.0118L65.2206 77.0183L64.8424 76.9956L64.461 76.9472L64.0797 76.8696L63.7015 76.7662L63.333 76.6401L62.971 76.4914L62.622 76.3169L62.2891 76.123L61.9723 75.9097L61.6782 75.6769L61.4067 75.4248L61.2904 75.3182L61.1772 75.2309L61.0641 75.1598L60.9607 75.1016L60.5858 74.9271L60.5114 74.8819L60.4435 74.8269L60.4112 74.7946L60.3854 74.7623L60.3595 74.7235L60.3369 74.6815L60.3143 74.633L60.2981 74.5813L60.269 74.4617L60.2528 74.3162L60.2496 74.1417L60.2819 73.0816L60.353 71.9568L60.4726 70.8417L60.5567 70.3181L60.6601 69.8268L60.8023 69.3323L60.9833 68.8281L61.4326 67.8035L61.9756 66.7854L62.58 65.7964L63.2102 64.872L63.8373 64.0349L64.419 63.3174L64.9297 62.7453L64.739 65.512L64.5839 67.0602L64.3415 68.6956L64.2768 69.0091L64.1928 69.3323L64.0958 69.6652L63.9795 70.0014L63.8502 70.3407L63.708 70.6833L63.3815 71.375L62.9872 72.1087L62.6091 72.7293L62.205 73.324L61.7299 73.9866L60.9542 75.0693L61.7558 74.5199L63.7177 73.13ZM69.7746 67.448L70.3209 67.0084L70.8606 66.6077L71.3745 66.2651L71.6169 66.1228L71.8496 66L72.2343 65.8384L72.635 65.7059L73.0488 65.6057L73.4722 65.5314L73.902 65.4861L74.3351 65.4667L74.7618 65.47L75.1819 65.499L75.586 65.5605L75.9803 65.638L76.3552 65.7318L76.714 65.8384L77.0436 65.9645L77.3475 66.1034L77.6157 66.2586L77.7385 66.3426L77.8484 66.4299L77.383 66.9697L76.8626 67.5126L76.2938 68.0556L75.6926 68.5857L75.0688 69.0964L74.4289 69.578L73.7857 70.0175L73.1522 70.4151L72.8581 70.5734L72.5445 70.7027L72.2181 70.8029L71.8787 70.8773L71.5264 70.9225L71.1709 70.9419L70.8089 70.9354L70.4469 70.9031L70.0849 70.8482L69.7294 70.7674L69.3771 70.6639L69.0377 70.5379L68.708 70.3924L68.3913 70.2244L68.0972 70.0369L67.8192 69.8301L67.6996 69.7428L67.5865 69.6717L67.4766 69.6167L67.3732 69.5747L67.0112 69.4519L66.9336 69.4164L66.8657 69.3711L66.8366 69.3453L66.8043 69.3162L66.7785 69.2838L66.7526 69.2451L66.73 69.203L66.7074 69.1578L66.6718 69.0479L66.646 68.9121L66.6266 68.7505L66.5619 67.7551L66.5264 66.6949L66.5393 65.6445L66.5716 65.1467L66.6233 64.6781L66.7138 64.1997L66.8366 63.7085L67.1663 62.7065L67.5833 61.6949L68.0616 60.7091L68.5691 59.7782L69.0765 58.9314L69.5581 58.1977L69.9847 57.6095L70.0526 60.2178L70.0461 61.6819L69.9621 63.2366L69.9298 63.5372L69.8813 63.8474L69.8199 64.1674L69.7423 64.4906L69.6518 64.8235L69.5484 65.1597L69.306 65.8416L69.0022 66.5689L68.7048 67.1862L68.3784 67.7841L67.9937 68.4532L67.3667 69.5456L68.0648 68.9477L68.9181 68.1946L69.3448 67.8165L69.7746 67.448ZM74.9589 60.6735L75.3953 60.1111L75.8316 59.5843L76.2615 59.1221L76.4651 58.9217L76.6655 58.7439L77.0049 58.4886L77.3669 58.2591L77.7482 58.0555L78.1458 57.8777L78.553 57.7258L78.9667 57.5998L79.3837 57.4963L79.8006 57.4188L80.2079 57.3735L80.6054 57.3477L80.99 57.3444L81.3617 57.3606L81.7108 57.3994L82.034 57.4608L82.1859 57.4996L82.3314 57.5448L82.4671 57.5933L82.5932 57.6515L82.257 58.2914L81.8659 58.954L81.4296 59.6231L80.961 60.2889L80.46 60.9418L79.9428 61.572L79.4128 62.1635L78.8827 62.7097L78.6306 62.9392L78.3526 63.1428L78.0553 63.3238L77.7418 63.479L77.4089 63.6115L77.0663 63.7214L76.714 63.8054L76.3552 63.8668L75.99 63.9024L75.6247 63.9153L75.2627 63.9024L74.904 63.8668L74.5517 63.8087L74.2123 63.7246L73.8826 63.618L73.5691 63.4854L73.4366 63.4305L73.3106 63.3917L73.191 63.3659L73.0811 63.3497L72.6997 63.3206L72.6189 63.3044L72.5445 63.2786L72.509 63.2624L72.4734 63.2398L72.4379 63.2172L72.4056 63.1849L72.3732 63.1525L72.3442 63.1105L72.286 63.0136L72.2278 62.8907L72.1761 62.7356L71.8981 61.7854L71.6363 60.764L71.423 59.7362L71.3487 59.2417L71.3002 58.773L71.284 58.285L71.297 57.7775L71.4004 56.7206L71.5911 55.6314L71.8432 54.5551L72.1341 53.5209L72.4476 52.5674L72.7579 51.7335L73.0455 51.0548L73.6726 53.5758L73.9796 55.0012L74.2349 56.5332L74.2673 56.8338L74.2899 57.1473L74.2963 57.4737L74.2899 57.8099L74.2446 58.5048L74.1574 59.2288L74.0184 60.0109L73.86 60.6897L73.6726 61.3522L73.4431 62.0989L73.0681 63.3238L73.6208 62.5643L74.9589 60.6735ZM78.3882 51.9921L78.6726 51.323L78.9667 50.6928L79.2673 50.1207L79.416 49.8686L79.5647 49.6423L79.8297 49.2997L80.1238 48.9765L80.4406 48.6727L80.78 48.3883L81.1355 48.1232L81.5039 47.8841L81.8821 47.6643L82.2667 47.4704L82.6481 47.312L83.0263 47.173L83.398 47.0599L83.7567 46.9694L84.1026 46.9047L84.4322 46.8724L84.5874 46.866H84.7361L84.8815 46.8756L85.0172 46.895L84.8492 47.6093L84.6326 48.3592L84.3773 49.1284L84.0832 49.9074L83.76 50.6798L83.4141 51.4361L83.0489 52.1569L82.6675 52.8357L82.48 53.1298L82.2635 53.4045L82.0211 53.6631L81.7561 53.9055L81.4684 54.1253L81.1646 54.3289L80.8446 54.5099L80.5149 54.6715L80.1723 54.8105L79.8232 54.9268L79.4709 55.0206L79.1154 55.0884L78.7631 55.1304L78.4141 55.1466L78.0682 55.1369L77.7353 55.1014L77.5931 55.0852H77.4606L77.341 55.0917L77.2311 55.1078L76.8562 55.1886L76.7754 55.1983L76.6946 55.1951L76.6558 55.1886L76.617 55.1789L76.5782 55.1628L76.5394 55.1466L76.5006 55.1208L76.4619 55.0917L76.3811 55.0141L76.297 54.9107L76.2098 54.7781L75.712 53.941L75.2078 53.0296L74.7521 52.0987L74.5582 51.6462L74.3965 51.2067L74.264 50.7412L74.1509 50.2467L73.9925 49.1963L73.9117 48.0909L73.8923 46.9791L73.9214 45.8996L73.9925 44.8911L74.0863 43.9958L74.1994 43.2589L75.4179 45.5149L76.0611 46.7981L76.6816 48.204L76.7883 48.4852L76.882 48.7826L76.9693 49.0929L77.0469 49.4193L77.1147 49.7587L77.1729 50.1045L77.2634 50.8285L77.3216 51.6236L77.3345 52.3217L77.3151 53.0166L77.2764 53.8021L77.2117 55.0884L77.5575 54.1996L78.3882 51.9921ZM79.639 42.1471L79.7263 41.4198L79.8394 40.7217L79.9687 40.0818L80.043 39.7941L80.1238 39.5291L80.2854 39.1186L80.4761 38.7146L80.6992 38.3203L80.948 37.9421L81.2163 37.5769L81.5039 37.2278L81.8045 36.9014L82.118 36.5943L82.438 36.3228L82.7645 36.0707L83.0877 35.8412L83.4109 35.6408L83.7244 35.4728L84.0282 35.3338L84.3191 35.2336L84.4581 35.198L84.5938 35.1722L84.6262 35.9091L84.6229 36.6945L84.5874 37.5122L84.5195 38.3493L84.4193 39.1897L84.2933 40.0203L84.1381 40.8251L83.9571 41.5944L83.8569 41.9338L83.7244 42.2667L83.5628 42.5931L83.3753 42.9099L83.162 43.2137L82.9261 43.5046L82.6707 43.7793L82.396 44.0379L82.1051 44.2803L81.8045 44.5L81.491 44.7037L81.171 44.8814L80.8446 45.0333L80.5149 45.1594L80.182 45.2596L79.8523 45.3307L79.7134 45.3598L79.5873 45.4018L79.4742 45.4471L79.3708 45.4988L79.0378 45.6927L78.9603 45.7282L78.8859 45.7476L78.8472 45.7541L78.8084 45.7573H78.7663L78.7243 45.7509L78.6791 45.7379L78.6338 45.725L78.5369 45.6765L78.427 45.6022L78.3074 45.5052L77.6028 44.862L76.8756 44.151L76.5233 43.7825L76.1871 43.4076L75.8801 43.0327L75.6054 42.6642L75.35 42.2602L75.1108 41.8239L74.6777 40.8672L74.2996 39.8394L73.9796 38.7825L73.7146 37.7385L73.5109 36.7527L73.3623 35.8671L73.2685 35.1269L75.043 36.8981L76.0061 37.9195L76.979 39.0669L77.1568 39.2996L77.3281 39.5549L77.4961 39.8264L77.6577 40.1141L77.8161 40.4147L77.9648 40.7314L78.246 41.394L78.5175 42.1341L78.7179 42.8L78.8892 43.469L79.0637 44.2318L79.3514 45.4826L79.4419 44.5259L79.639 42.1471ZM78.6823 32.357L78.5854 31.6298L78.5175 30.9252L78.4852 30.2723V29.9717L78.4949 29.6938L78.5466 29.251L78.6306 28.8082L78.747 28.3654L78.8892 27.9258L79.0572 27.4959L79.2479 27.0758L79.4548 26.6717L79.6778 26.2839L79.9202 25.9251L80.1691 25.589L80.4244 25.2755L80.683 24.9878L80.9416 24.7325L81.2001 24.5095L81.4555 24.3285L81.5815 24.2541L81.7043 24.1895L81.9209 24.8876L82.1148 25.6439L82.2829 26.4423L82.4283 27.2665L82.5447 28.1036L82.6287 28.9407L82.6837 29.7649L82.7031 30.5567L82.6934 30.9123L82.6481 31.271L82.5738 31.6298L82.4736 31.9886L82.3443 32.3441L82.1892 32.6932L82.0114 33.0325L81.811 33.3622L81.5944 33.679L81.3585 33.9828L81.1096 34.2672L80.8446 34.5322L80.5666 34.7746L80.2822 34.9944L79.9881 35.1884L79.6875 35.3532L79.5614 35.4243L79.4483 35.4986L79.3546 35.5794L79.2673 35.657L78.9958 35.9447L78.9312 35.9996L78.8633 36.0416L78.8245 36.0578L78.789 36.0739L78.747 36.0836L78.7049 36.0901L78.6597 36.0933L78.6112 36.0901L78.5045 36.0739L78.385 36.0352L78.2428 35.9738L77.4056 35.5633L76.5265 35.0914L76.0966 34.8393L75.6797 34.5775L75.2886 34.3092L74.9331 34.0345L74.5872 33.721L74.2479 33.3719L73.5885 32.58L72.9679 31.7009L72.3926 30.7798L71.8787 29.8521L71.4327 28.9633L71.0675 28.1553L70.7927 27.4701L72.9421 28.653L74.1283 29.3544L74.7359 29.7455L75.3532 30.1721L75.5827 30.3467L75.809 30.5406L76.0385 30.7507L76.2679 30.9801L76.4942 31.2258L76.7172 31.4844L77.1568 32.0403L77.6028 32.6738L77.9616 33.2523L78.2912 33.847L78.6532 34.529L79.2415 35.6505L79.0896 34.7003L78.6823 32.357ZM74.8878 22.7932L74.6454 22.1662L74.4353 21.5521L74.264 20.9735L74.1994 20.7053L74.1477 20.4532L74.0992 20.0427L74.0798 19.6225L74.0895 19.1959L74.1218 18.7692L74.18 18.3394L74.2608 17.916L74.361 17.5023L74.4773 17.0983L74.6163 16.7169L74.7682 16.3516L74.9298 16.0058L75.0979 15.6858L75.2757 15.3885L75.4599 15.1267L75.6506 14.8972L75.7476 14.8002L75.8445 14.7097L76.1871 15.2818L76.5233 15.9121L76.8465 16.5843L77.1535 17.2889L77.438 18.0129L77.6933 18.7402L77.9195 19.4642L78.107 20.1688L78.1749 20.492L78.2104 20.8249L78.2234 21.1642L78.2072 21.5133L78.1684 21.8624L78.1038 22.2147L78.0165 22.5637L77.9098 22.9096L77.7838 23.2489L77.6351 23.5786L77.4735 23.8986L77.2925 24.2024L77.0986 24.4901L76.8885 24.7583L76.6655 25.004L76.4328 25.227L76.3326 25.324L76.2518 25.4177L76.1807 25.5114L76.1225 25.6052L75.9383 25.9316L75.893 25.9962L75.8413 26.0544L75.8122 26.077L75.7799 26.0997L75.7476 26.1191L75.712 26.1352L75.67 26.1481L75.628 26.1578L75.5278 26.1708L75.4114 26.1675L75.2724 26.1481L74.4321 25.9898L73.5433 25.7894L73.1005 25.6698L72.6706 25.5405L72.2634 25.3983L71.8852 25.2432L71.507 25.0492L71.1289 24.8198L70.3693 24.2768L69.6227 23.6465L68.9117 22.9613L68.2523 22.2599L67.6608 21.5747L67.1599 20.9445L66.7655 20.3982L68.9472 20.9154L70.1592 21.2483L70.7895 21.4454L71.4327 21.6717L71.6751 21.7719L71.924 21.8882L72.1729 22.0207L72.4282 22.1662L72.6803 22.3278L72.9389 22.5056L73.1942 22.693L73.4495 22.8934L73.9861 23.3491L74.4321 23.779L74.8587 24.2283L75.3274 24.7486L76.0966 25.6052L75.7573 24.7907L74.8878 22.7932ZM69.4999 15.2559L69.083 14.7453L68.7016 14.2378L68.3719 13.7498L68.2297 13.5171L68.1101 13.2941L67.942 12.9224L67.7998 12.5345L67.6802 12.1273L67.5865 11.7071L67.5154 11.2837L67.4637 10.8538L67.4346 10.4272L67.4281 10.0038L67.4475 9.5933L67.4831 9.19575L67.5315 8.81113L67.5994 8.44913L67.6802 8.10653L67.7772 7.79302L67.8871 7.51182L67.9517 7.38577L68.0164 7.26618L68.5109 7.68959L69.0151 8.16794L69.5225 8.69477L70.0203 9.25393L70.5019 9.84217L70.9608 10.4433L71.3875 11.051L71.7753 11.6554L71.9337 11.9366L72.0662 12.2404L72.1793 12.5604L72.2666 12.8933L72.3312 13.2391L72.3765 13.5946L72.3959 13.9534L72.3991 14.3186L72.3765 14.6839L72.3377 15.0491L72.2763 15.4079L72.1955 15.7569L72.0953 16.0963L71.9757 16.4227L71.84 16.7363L71.6848 17.0271L71.6202 17.1532L71.5685 17.2728L71.5297 17.3859L71.5006 17.4926L71.423 17.8643L71.4004 17.9418L71.3681 18.0129L71.3487 18.0453L71.326 18.0776L71.3002 18.1067L71.2679 18.1358L71.2355 18.1616L71.1968 18.1875L71.1063 18.2327L70.9931 18.2683L70.8574 18.3006L70.0138 18.4428L69.1121 18.5592L68.6596 18.6012L68.2135 18.627L67.7869 18.6335L67.3829 18.6173L66.9692 18.5656L66.5393 18.4784L65.6602 18.2263L64.7649 17.8869L63.889 17.4861L63.0551 17.0498L62.2923 16.607L61.6297 16.1803L61.0964 15.8022L63.3169 15.5371L64.5645 15.4305L65.2206 15.4014L65.8961 15.3917L66.1547 15.4014L66.4229 15.424L66.7009 15.4628L66.9853 15.5145L67.2762 15.5824L67.5703 15.66L67.8677 15.7505L68.1683 15.8507L68.8115 16.0963L69.3609 16.3452L69.8975 16.6264L70.4986 16.956L71.478 17.499L70.9156 16.8461L69.4999 15.2559ZM63.2846 10.3722L62.8288 9.99408L62.4054 9.60946L62.0305 9.2313L61.8657 9.05031L61.7202 8.87254L61.5101 8.57195L61.3227 8.24874L61.1514 7.90614L60.9995 7.54738L60.8669 7.17892L60.7538 6.80399L60.6601 6.42584L60.5858 6.04768L60.5373 5.67599L60.505 5.31076L60.4888 4.95846V4.61909L60.5082 4.29911L60.5437 3.99852L60.6019 3.72379L60.6342 3.60097L60.6763 3.48139L61.1869 3.76904L61.717 4.10518L62.2568 4.48334L62.7933 4.89058L63.3201 5.32692L63.8276 5.78265L64.3091 6.24807L64.7519 6.71672L64.9394 6.93974L65.1075 7.18538L65.2594 7.45365L65.3919 7.73484L65.505 8.03542L65.5987 8.34571L65.6763 8.66569L65.7377 8.99213L65.7765 9.3218L65.7959 9.65794L65.7991 9.99085L65.783 10.3205L65.7474 10.6437L65.6925 10.9605L65.6214 11.2643L65.5276 11.5552L65.4889 11.678L65.463 11.7976L65.4468 11.9043L65.4371 12.0077L65.4275 12.3568L65.4178 12.4311L65.4016 12.499L65.3887 12.5345L65.3725 12.5668L65.3531 12.5992L65.3337 12.6282L65.3046 12.6606L65.2755 12.6897L65.2012 12.7446L65.1075 12.7995L64.9879 12.8545L64.2542 13.1389L63.4656 13.4136L63.0648 13.5365L62.6705 13.6431L62.2858 13.7272L61.9206 13.7886L61.5392 13.8177L61.1417 13.8209L60.311 13.7595L59.4545 13.6205L58.6045 13.4266L57.7868 13.1906L57.0304 12.9353L56.3679 12.6767L55.8281 12.4376L57.7803 11.7847L58.8824 11.455L59.4674 11.3031L60.0718 11.1706L60.3046 11.1318L60.5502 11.1027L60.8055 11.0865L61.0673 11.0801L61.3388 11.0833L61.6168 11.0995L61.898 11.1221L62.1856 11.1576L62.803 11.2578L63.3363 11.3807L63.8599 11.5293L64.4514 11.7168L65.4178 12.0206L64.8069 11.539L63.2846 10.3722ZM56.5715 6.82015L56.1869 6.49694L55.8281 6.1705L55.5081 5.85052L55.3691 5.69538L55.2463 5.5467L55.0685 5.29137L54.9069 5.01664L54.7615 4.72898L54.6354 4.42516L54.5223 4.11165L54.4254 3.79167L54.3446 3.47169L54.2831 3.15171L54.2444 2.8382L54.2153 2.52792L54.2023 2.23056V1.9429L54.2185 1.67141L54.2508 1.41607L54.2961 1.18659L54.3252 1.07993L54.3607 0.979736L54.7938 1.22214L55.2431 1.50657L55.6988 1.82655L56.1545 2.17238L56.6006 2.54408L57.0304 2.9287L57.4377 3.32301L57.8126 3.72056L57.971 3.91126L58.1132 4.11811L58.2425 4.34436L58.3556 4.58353L58.4526 4.83564L58.5334 5.09744L58.598 5.36894L58.6465 5.6469L58.682 5.92809L58.7014 6.21252V6.49371L58.6885 6.7749L58.6594 7.04963L58.6142 7.3179L58.5495 7.57647L58.472 7.82211L58.4396 7.92876L58.417 8.02573L58.4041 8.11946L58.3976 8.20349L58.3879 8.50085L58.3815 8.56226L58.3653 8.62367L58.3556 8.64952L58.3427 8.67861L58.3265 8.70447L58.3071 8.73033L58.2845 8.75618L58.2586 8.78204L58.1972 8.83052L58.1164 8.87577L58.0162 8.92102L57.3924 9.16343L56.7234 9.39614L56.384 9.49957L56.0479 9.58684L55.7247 9.66117L55.4144 9.71289L55.0912 9.73874L54.755 9.74198L54.0504 9.69026L53.3264 9.57067L52.6025 9.40584L51.9108 9.20545L51.2708 8.9889L50.7117 8.76911L50.2527 8.56549L51.9043 8.0128L52.8384 7.73484L53.3329 7.60555L53.8468 7.49243L54.044 7.46011L54.2541 7.43425L54.4706 7.42132L54.6936 7.41486L54.9231 7.42132L55.1558 7.43425L55.6374 7.48273L56.161 7.56677L56.3905 7.61848L56.6135 7.67343L57.0595 7.79948L57.5605 7.95785L58.3782 8.21319L57.8611 7.80594L56.5715 6.82015ZM37.9545 79.9983L37.1821 79.8851L36.4355 79.8108L36.0799 79.7882L35.7406 79.7785L35.4238 79.7817L35.1264 79.7979L34.6578 79.8658L34.1891 79.9756L33.7205 80.1243L33.2583 80.3053L32.8026 80.5186L32.3598 80.7578L31.9331 81.0229L31.5259 81.304L31.151 81.6079L30.7954 81.9214L30.4625 82.2414L30.1619 82.5646L29.8937 82.891L29.661 83.2142L29.4703 83.5342L29.3927 83.6893L29.3248 83.8445L30.0682 84.1063L30.873 84.339L31.723 84.5394L32.5989 84.7107L33.491 84.8464L34.3798 84.9434L35.2525 84.9983L36.0928 85.0145L36.471 84.9983L36.8492 84.9402L37.2306 84.8432L37.6119 84.7107L37.9836 84.5458L38.3521 84.3519L38.7141 84.1257L39.0599 83.8768L39.3928 83.6021L39.7128 83.3047L40.0102 82.9912L40.2914 82.6583L40.5467 82.3125L40.7762 81.9537L40.9766 81.5885L41.1479 81.2135L41.2222 81.0552L41.2998 80.9162L41.3806 80.7966L41.4646 80.6899L41.7652 80.3473L41.8234 80.2665L41.8686 80.1793L41.8848 80.1373L41.9009 80.0888L41.9106 80.0403L41.9171 79.9853V79.8722L41.8977 79.7397L41.8557 79.5878L41.7911 79.4133L41.345 78.3758L40.8344 77.2898L40.2784 76.2426L39.9908 75.761L39.6967 75.3214L39.3605 74.8948L38.9856 74.4778L38.1388 73.6666L37.1982 72.9038L36.2124 72.2024L35.2234 71.5722L34.2764 71.0292L33.4134 70.5831L32.683 70.2502L33.9597 72.9103L34.7192 74.3744L35.6016 75.887L35.789 76.1682L35.9959 76.4527L36.2254 76.7338L36.471 77.015L36.7328 77.293L37.0075 77.5677L37.6022 78.1043L38.281 78.6505L38.8983 79.09L39.535 79.4973L40.2623 79.9369L41.4549 80.6576L40.4465 80.4799L37.9545 79.9983ZM29.5866 76.7242L28.9014 76.472L28.2356 76.2555L27.9156 76.1682L27.6118 76.0907L27.3209 76.0325L27.0494 75.9905L26.6099 75.9614L26.1638 75.9711L25.7146 76.0163L25.2621 76.0939L24.8128 76.1973L24.37 76.3298L23.9401 76.4882L23.5232 76.666L23.1321 76.8696L22.7539 77.0861L22.4016 77.3124L22.0752 77.5483L21.7746 77.794L21.5128 78.0428L21.2866 78.295L21.1896 78.421L21.1023 78.5503L21.7358 78.9317L22.4275 79.3001L23.1677 79.646L23.9369 79.9692L24.7223 80.2633L25.5174 80.5251L26.2996 80.7449L27.0623 80.9227L27.4082 80.9808L27.7637 81.0002L28.1257 80.9873L28.4942 80.942L28.8594 80.8645L29.2279 80.7578L29.5931 80.6221L29.9486 80.4605L30.2977 80.2762L30.6371 80.0694L30.9603 79.8399L31.2705 79.5943L31.5582 79.3292L31.8265 79.048L32.0721 78.7539L32.2887 78.4469L32.3824 78.3176L32.4761 78.2045L32.5699 78.1107L32.6636 78.0299L32.9933 77.7746L33.0579 77.7132L33.1161 77.6453L33.1387 77.6065L33.1613 77.5677L33.1775 77.5225L33.1937 77.4772L33.2098 77.3706L33.213 77.2477L33.2001 77.1023L33.171 76.931L32.9351 75.9032L32.6507 74.814L32.321 73.7538L32.1368 73.2593L31.9428 72.8036L31.7069 72.3511L31.4354 71.8986L30.7987 70.9969L30.0714 70.121L29.2893 69.2935L28.4942 68.5275L27.7217 67.852L27.0106 67.2799L26.403 66.8339L27.127 69.5004L27.573 70.9807L28.1257 72.5256L28.2485 72.8198L28.3907 73.1171L28.5523 73.4177L28.7269 73.7183L28.9208 74.0221L29.1277 74.3259L29.5802 74.9303L30.1038 75.5606L30.595 76.081L31.1057 76.5722L31.694 77.112L32.6604 77.9976L31.7715 77.6388L29.5866 76.7242ZM22.2756 73.13L21.655 72.7325L21.0409 72.3705L20.7468 72.2121L20.4624 72.0699L20.1909 71.9471L19.9323 71.8469L19.5089 71.7208L19.0726 71.6271L18.6233 71.5689L18.1676 71.5431H17.7086L17.2497 71.5754L16.7972 71.6303L16.3544 71.7112L15.931 71.821L15.5237 71.9503L15.1359 72.0925L14.7674 72.2509L14.4313 72.4222L14.1242 72.6064L13.856 72.8036L13.7364 72.9038L13.6265 73.0105L14.1727 73.5244L14.7803 74.0415L15.4332 74.5457L16.1249 75.037L16.8392 75.5024L17.5632 75.9355L18.2872 76.3266L18.9982 76.6724L19.3247 76.805L19.6705 76.9051L20.0261 76.973L20.3945 77.0118L20.7694 77.0183L21.1476 76.9956L21.529 76.9472L21.9104 76.8696L22.2885 76.7662L22.6602 76.6401L23.019 76.4914L23.368 76.3169L23.7042 76.123L24.0177 75.9097L24.3151 75.6769L24.5866 75.4248L24.7029 75.3182L24.816 75.2309L24.9259 75.1598L25.0326 75.1016L25.4043 74.9271L25.4818 74.8819L25.5497 74.8269L25.5788 74.7946L25.6079 74.7623L25.6338 74.7235L25.6564 74.6815L25.6758 74.633L25.6952 74.5813L25.721 74.4617L25.7372 74.3162L25.7404 74.1417L25.7081 73.0816L25.6402 71.9568L25.5206 70.8417L25.4366 70.3181L25.3332 69.8268L25.191 69.3323L25.01 68.8281L24.5607 67.8035L24.0177 66.7854L23.4101 65.7964L22.7798 64.872L22.156 64.0349L21.571 63.3174L21.0603 62.7453L21.2543 65.512L21.4094 67.0602L21.6518 68.6956L21.7164 69.0091L21.8005 69.3323L21.8974 69.6652L22.0138 70.0014L22.1431 70.3407L22.2853 70.6833L22.6117 71.375L23.0061 72.1087L23.3842 72.7293L23.7882 73.324L24.2601 73.9866L25.0358 75.0693L24.2375 74.5199L22.2756 73.13ZM16.2154 67.448L15.6692 67.0084L15.1326 66.6077L14.8708 66.4267L14.6155 66.2651L14.3731 66.1228L14.1404 66L13.759 65.8384L13.3582 65.7059L12.9445 65.6057L12.5179 65.5314L12.088 65.4861L11.6581 65.4667L11.2283 65.47L10.8081 65.499L10.4041 65.5605L10.013 65.638L9.63483 65.7318L9.2793 65.8384L8.94639 65.9645L8.64257 66.1034L8.37431 66.2586L8.25149 66.3426L8.1416 66.4299L8.60702 66.9697L9.12739 67.5126L9.69624 68.0556L10.2974 68.5857L10.9244 69.0964L11.5644 69.578L12.2044 70.0175L12.8411 70.4151L13.1352 70.5734L13.4487 70.7027L13.7752 70.8029L14.1145 70.8773L14.4636 70.9225L14.8224 70.9419L15.1811 70.9354L15.5464 70.9031L15.9051 70.8482L16.2639 70.7674L16.6162 70.6639L16.9555 70.5379L17.2852 70.3924L17.602 70.2244L17.8961 70.0369L18.1741 69.8301L18.2936 69.7428L18.4068 69.6717L18.5167 69.6167L18.6201 69.5747L18.9853 69.4519L19.0597 69.4164L19.1275 69.3711L19.1566 69.3453L19.1889 69.3162L19.2148 69.2838L19.2406 69.2451L19.2633 69.203L19.2859 69.1578L19.3215 69.0479L19.3473 68.9121L19.3667 68.7505L19.4313 67.7551L19.4669 66.6949L19.454 65.6445L19.4216 65.1467L19.3699 64.6781L19.2794 64.1997L19.1566 63.7085L18.8269 62.7065L18.41 61.6949L17.9316 60.7091L17.4242 59.7782L16.9135 58.9314L16.4319 58.1977L16.0053 57.6095L15.9407 60.2178L15.9471 61.6819L16.0279 63.2366L16.0603 63.5372L16.1087 63.8474L16.1701 64.1674L16.2477 64.4906L16.3382 64.8235L16.4449 65.1597L16.6873 65.8416L16.9911 66.5689L17.2885 67.1862L17.6149 67.7841L17.9963 68.4532L18.6265 69.5456L17.9284 68.9477L16.2154 67.448ZM11.0311 60.6735L10.5948 60.1111L10.1584 59.5843L9.73179 59.1221L9.52494 58.9217L9.32778 58.7439L8.98841 58.4886L8.62641 58.2591L8.24502 58.0555L7.84747 57.8777L7.44023 57.7258L7.02652 57.5998L6.60958 57.4963L6.19264 57.4188L5.78539 57.3735L5.38784 57.3477L4.99999 57.3444L4.63153 57.3606L4.28246 57.3994L3.95925 57.4608L3.80734 57.4996L3.6619 57.5448L3.52615 57.5933L3.4001 57.6515L3.73623 58.2914L4.12732 58.954L4.56042 59.6231L5.03231 60.2889L5.53005 60.9418L6.04719 61.572L6.57726 62.1635L7.11055 62.7097L7.36266 62.9392L7.63739 63.1428L7.93474 63.3238L8.25149 63.479L8.58116 63.6115L8.92377 63.7214L9.27606 63.8054L9.63806 63.8668L10.0001 63.9024L10.3653 63.9153L10.7273 63.9024L11.086 63.8668L11.4383 63.8087L11.7809 63.7246L12.1106 63.618L12.4241 63.4854L12.5567 63.4305L12.6827 63.3917L12.8023 63.3659L12.9122 63.3497L13.2936 63.3206L13.3744 63.3044L13.4487 63.2786L13.4843 63.2624L13.5198 63.2398L13.5554 63.2172L13.5877 63.1849L13.62 63.1525L13.6491 63.1105L13.7073 63.0136L13.7655 62.8907L13.8172 62.7356L14.0919 61.7854L14.3537 60.764L14.567 59.7362L14.6446 59.2417L14.6931 58.773L14.7092 58.285L14.6963 57.7775L14.5896 56.7206L14.4022 55.6314L14.1501 54.5551L13.856 53.5209L13.5424 52.5674L13.2322 51.7335L12.9445 51.0548L12.3207 53.5758L12.0104 55.0012L11.7551 56.5332L11.7228 56.8338L11.7034 57.1473L11.6937 57.4737L11.7001 57.8099L11.7163 58.1525L11.7454 58.5048L11.8359 59.2288L11.9749 60.0109L12.1332 60.6897L12.3207 61.3522L12.5502 62.0989L12.9251 63.3238L12.3724 62.5643L11.0311 60.6735ZM7.60183 51.9921L7.32064 51.323L7.02652 50.6928L6.72593 50.1207L6.57726 49.8686L6.42858 49.6423L6.16355 49.2997L5.86942 48.9765L5.55268 48.6727L5.21331 48.3883L4.85454 48.1232L4.48608 47.8841L4.10793 47.6643L3.72654 47.4704L3.34515 47.312L2.96699 47.173L2.5953 47.0599L2.23654 46.9694L1.8907 46.9047L1.56103 46.8724L1.40589 46.866H1.25721L1.115 46.8756L0.979248 46.895L1.14732 47.6093L1.36064 48.3592L1.61597 49.1284L1.91009 49.9074L2.23007 50.6798L2.57591 51.4361L2.94114 52.1569L3.32253 52.8357L3.50999 53.1298L3.72654 53.4045L3.96895 53.6631L4.23398 53.9055L4.52164 54.1253L4.82545 54.3289L5.14543 54.5099L5.47834 54.6715L5.82094 54.8105L6.17001 54.9268L6.52231 55.0206L6.87784 55.0884L7.23014 55.1304L7.57921 55.1466L7.92504 55.1369L8.25795 55.1014L8.40016 55.0852H8.53268L8.65227 55.0917L8.76216 55.1078L9.13708 55.1886L9.21789 55.1983L9.29869 55.1951L9.33747 55.1886L9.37626 55.1789L9.41505 55.1628L9.45383 55.1466L9.49262 55.1208L9.5314 55.0917L9.6122 55.0141L9.69624 54.9107L9.78351 54.7781L10.2812 53.941L10.7855 53.0296L11.2412 52.0987L11.4351 51.6462L11.5967 51.2067L11.7292 50.7412L11.8424 50.2467L11.9975 49.1963L12.0815 48.0909L12.1009 46.9791L12.0718 45.8996L12.0007 44.8911L11.9038 43.9958L11.7939 43.2589L10.5754 45.5149L9.92895 46.7981L9.30839 48.204L9.20496 48.4852L9.108 48.7826L9.02073 49.0929L8.94639 49.4193L8.87852 49.7587L8.82034 50.1045L8.72984 50.8285L8.67166 51.6236L8.65873 52.3217L8.67813 53.0166L8.71691 53.8021L8.78155 55.0884L8.43249 54.1996L7.60183 51.9921ZM6.35424 42.1471L6.26374 41.4198L6.15385 40.7217L6.02133 40.0818L5.947 39.7941L5.86619 39.5291L5.70782 39.1186L5.51389 38.7146L5.29088 38.3203L5.04524 37.9421L4.77697 37.5769L4.48932 37.2278L4.18873 36.9014L3.87522 36.5943L3.552 36.3228L3.22879 36.0707L2.90235 35.8412L2.58237 35.6408L2.26886 35.4728L1.96504 35.3338L1.67415 35.2336L1.53517 35.198L1.39942 35.1722L1.3671 35.9091L1.37033 36.6945L1.40589 37.5122L1.47376 38.3493L1.57072 39.1897L1.70001 40.0203L1.85192 40.8251L2.03291 41.5944L2.13311 41.9338L2.26563 42.2667L2.42723 42.5931L2.61793 42.9099L2.83124 43.2137L3.06719 43.5046L3.32253 43.7793L3.59725 44.0379L3.88814 44.2803L4.18873 44.5L4.50224 44.7037L4.82222 44.8814L5.14867 45.0333L5.47834 45.1594L5.81125 45.2596L6.14092 45.3307L6.2799 45.3598L6.40595 45.4018L6.51908 45.4471L6.61927 45.4988L6.95541 45.6927L7.02975 45.7282L7.10732 45.7476L7.14611 45.7541L7.18489 45.7573H7.22691L7.26893 45.7509L7.31094 45.7379L7.35619 45.725L7.45639 45.6765L7.56305 45.6022L7.68264 45.5052L8.38724 44.862L9.11446 44.151L9.46676 43.7825L9.8029 43.4076L10.1099 43.0327L10.3847 42.6642L10.64 42.2602L10.8792 41.8239L11.3155 40.8672L11.6937 39.8394L12.0137 38.7825L12.2755 37.7385L12.4823 36.7527L12.631 35.8671L12.7247 35.1269L10.9503 36.8981L9.98713 37.9195L9.01103 39.0669L8.8365 39.2996L8.66196 39.5549L8.49713 39.8264L8.33552 40.1141L8.17715 40.4147L8.02524 40.7314L7.74405 41.394L7.47578 42.1341L7.27539 42.8L7.10409 43.469L6.92956 44.2318L6.6419 45.4826L6.5514 44.5259L6.35424 42.1471ZM7.31094 32.357L7.40791 31.6298L7.47578 30.9252L7.5081 30.2723V29.9717L7.49517 29.6938L7.44346 29.251L7.35943 28.8082L7.2463 28.3654L7.10409 27.9258L6.93602 27.4959L6.74533 27.0758L6.53524 26.6717L6.31222 26.2839L6.07305 25.9251L5.82418 25.589L5.56884 25.2755L5.31027 24.9878L5.0517 24.7325L4.79313 24.5095L4.5378 24.3285L4.41175 24.2541L4.28892 24.1895L4.07237 24.8876L3.87845 25.6439L3.70715 26.4423L3.56493 27.2665L3.44858 28.1036L3.36131 28.9407L3.30636 29.7649L3.28697 30.5567L3.2999 30.9123L3.34192 31.271L3.41626 31.6298L3.51968 31.9886L3.64897 32.3441L3.80411 32.6932L3.98187 33.0325L4.17903 33.3622L4.39882 33.679L4.63476 33.9828L4.88363 34.2672L5.14867 34.5322L5.42339 34.7746L5.71105 34.9944L6.00194 35.1884L6.30253 35.3532L6.43181 35.4243L6.5417 35.4986L6.63867 35.5794L6.7227 35.657L6.99743 35.9447L7.06207 35.9996L7.12995 36.0416L7.1655 36.0578L7.20428 36.0739L7.24307 36.0836L7.28509 36.0901L7.33034 36.0933L7.37882 36.0901L7.48548 36.0739L7.60507 36.0352L7.74728 35.9738L8.58763 35.5633L9.46676 35.0914L9.89663 34.8393L10.3136 34.5775L10.7047 34.3092L11.0602 34.0345L11.406 33.721L11.7454 33.3719L12.4047 32.58L13.0253 31.7009L13.5974 30.7798L14.1113 29.8521L14.5573 28.9633L14.9258 28.1553L15.2005 27.4701L13.0512 28.653L11.865 29.3544L11.2541 29.7455L10.6368 30.1721L10.4073 30.3467L10.1811 30.5406L9.95158 30.7507L9.7221 30.9801L9.49585 31.2258L9.27283 31.4844L8.8365 32.0403L8.39047 32.6738L8.0317 33.2523L7.70203 33.847L7.34003 34.529L6.74856 35.6505L6.90047 34.7003L7.31094 32.357ZM11.1022 22.7932L11.3446 22.1662L11.5579 21.5521L11.7292 20.9735L11.7939 20.7053L11.8424 20.4532L11.8908 20.0427L11.9102 19.6225L11.9038 19.1959L11.8682 18.7692L11.8133 18.3394L11.7325 17.916L11.6323 17.5023L11.5159 17.0983L11.3769 16.7169L11.225 16.3516L11.0634 16.0058L10.8954 15.6858L10.7176 15.3885L10.5334 15.1267L10.3427 14.8972L10.2457 14.8002L10.1487 14.7097L9.80613 15.2818L9.46999 15.9121L9.14678 16.5843L8.83973 17.2889L8.55531 18.0129L8.29997 18.7402L8.07372 19.4642L7.88626 20.1688L7.81839 20.492L7.78283 20.8249L7.7699 21.1642L7.78606 21.5133L7.82485 21.8624L7.88949 22.2147L7.97676 22.5637L8.08342 22.9096L8.20947 23.2489L8.35491 23.5786L8.51975 23.8986L8.70075 24.2024L8.89468 24.4901L9.10153 24.7583L9.32455 25.004L9.55726 25.227L9.65745 25.324L9.74149 25.4177L9.80936 25.5114L9.87077 25.6052L10.055 25.9316L10.1003 25.9962L10.152 26.0544L10.1811 26.077L10.2101 26.0997L10.2457 26.1191L10.2812 26.1352L10.32 26.1481L10.3653 26.1578L10.4622 26.1708L10.5818 26.1675L10.7208 26.1481L11.5612 25.9898L12.45 25.7894L12.8896 25.6698L13.3194 25.5405L13.7267 25.3983L14.1048 25.2432L14.483 25.0492L14.8611 24.8198L15.6239 24.2768L16.3673 23.6465L17.0816 22.9613L17.741 22.2599L18.3324 21.5747L18.8334 20.9445L19.2277 20.3982L17.046 20.9154L15.8308 21.2483L15.2005 21.4454L14.5573 21.6717L14.3149 21.7719L14.0693 21.8882L13.8172 22.0207L13.5651 22.1662L13.3097 22.3278L13.0512 22.5056L12.7958 22.693L12.5405 22.8934L12.0072 23.3491L11.5612 23.779L11.1345 24.2283L10.6659 24.7486L9.89663 25.6052L10.236 24.7907L11.1022 22.7932ZM16.4901 15.2559L16.9071 14.7453L17.2885 14.2378L17.6214 13.7498L17.7636 13.5171L17.8832 13.2941L18.0512 12.9224L18.1934 12.5345L18.313 12.1273L18.4068 11.7071L18.4779 11.2837L18.5296 10.8538L18.5587 10.4272L18.5651 10.0038L18.5457 9.5933L18.5102 9.19575L18.4617 8.81113L18.3938 8.44913L18.313 8.10653L18.2161 7.79302L18.1062 7.51182L18.0415 7.38577L17.9769 7.26618L17.4824 7.68959L16.9782 8.16794L16.4707 8.69477L15.973 9.25393L15.4914 9.84217L15.0324 10.4433L14.6058 11.051L14.218 11.6554L14.0596 11.9366L13.9238 12.2404L13.8139 12.5604L13.7267 12.8933L13.6588 13.2391L13.6168 13.5946L13.5942 13.9534V14.3186L13.6136 14.6839L13.6556 15.0491L13.717 15.4079L13.7978 15.7569L13.898 16.0963L14.0143 16.4227L14.1533 16.7363L14.3085 17.0271L14.3731 17.1532L14.4248 17.2728L14.4636 17.3859L14.4927 17.4926L14.5703 17.8643L14.5929 17.9418L14.6252 18.0129L14.6446 18.0453L14.6672 18.0776L14.6931 18.1067L14.7254 18.1358L14.7577 18.1616L14.7965 18.1875L14.887 18.2327L15.0001 18.2683L15.1359 18.3006L15.9795 18.4428L16.8812 18.5592L17.3337 18.6012L17.7797 18.627L18.2064 18.6335L18.6104 18.6173L19.0241 18.5656L19.454 18.4784L20.3331 18.2263L21.2284 17.8869L22.1043 17.4861L22.9349 17.0498L23.6977 16.607L24.3603 16.1803L24.8936 15.8022L22.6731 15.5371L21.4256 15.4305L20.7694 15.4014L20.0939 15.3917L19.8354 15.4014L19.5671 15.424L19.2924 15.4628L19.0079 15.5145L18.717 15.5824L18.4229 15.66L18.1256 15.7505L17.825 15.8507L17.1818 16.0963L16.6323 16.3452L16.0958 16.6264L15.4946 16.956L14.5153 17.499L15.0777 16.8461L16.4901 15.2559ZM22.7055 10.3722L23.1612 9.99408L23.5846 9.60946L23.9628 9.2313L24.1244 9.05031L24.2698 8.87254L24.4799 8.57195L24.6706 8.24874L24.8419 7.90614L24.9938 7.54738L25.1263 7.17892L25.2394 6.80399L25.3332 6.42584L25.4075 6.04768L25.456 5.67599L25.4851 5.31076L25.5012 4.95846V4.61909L25.4818 4.29911L25.4463 3.99852L25.3913 3.72379L25.3558 3.60097L25.317 3.48139L24.8063 3.76904L24.2763 4.10518L23.7365 4.48334L23.2 4.89058L22.6731 5.32692L22.1657 5.78265L21.6841 6.24807L21.2413 6.71672L21.0539 6.93974L20.8858 7.18538L20.7339 7.45365L20.6014 7.73484L20.4882 8.03542L20.3945 8.34571L20.3169 8.66569L20.2555 8.99213L20.2167 9.3218L20.1941 9.65794L20.1909 9.99085L20.207 10.3205L20.2426 10.6437L20.2975 10.9605L20.3687 11.2643L20.4624 11.5552L20.5012 11.678L20.527 11.7976L20.5464 11.9043L20.5529 12.0077L20.5658 12.3568L20.5755 12.4311L20.5917 12.499L20.6046 12.5345L20.6208 12.5668L20.6369 12.5992L20.6595 12.6282L20.6854 12.6606L20.7145 12.6897L20.7888 12.7446L20.8858 12.7995L21.0021 12.8545L21.7358 13.1389L22.5277 13.4136L22.9285 13.5365L23.3228 13.6431L23.7074 13.7272L24.0726 13.7886L24.454 13.8177L24.8516 13.8209L25.6822 13.7595L26.5387 13.6205L27.3888 13.4266L28.2065 13.1906L28.9596 12.9353L29.6222 12.6767L30.1619 12.4376L28.213 11.7847L27.1108 11.455L26.5258 11.3031L25.9182 11.1706L25.6855 11.1318L25.4431 11.1027L25.1877 11.0865L24.9259 11.0801L24.6544 11.0833L24.3765 11.0995L24.0953 11.1221L23.8076 11.1576L23.1903 11.2578L22.657 11.3807L22.1334 11.5293L21.5419 11.7168L20.5755 12.0206L21.1831 11.539L22.7055 10.3722ZM29.4218 6.82015L29.8064 6.49694L30.1684 6.1705L30.4851 5.85052L30.6241 5.69538L30.7469 5.5467L30.9247 5.29137L31.0863 5.01664L31.2285 4.72898L31.3578 4.42516L31.4709 4.11165L31.5647 3.79167L31.6455 3.47169L31.7069 3.15171L31.7489 2.8382L31.7748 2.52792L31.7909 2.23056V1.9429L31.7748 1.67141L31.7424 1.41607L31.6972 1.18659L31.6681 1.07993L31.6325 0.979736L31.1994 1.22214L30.7502 1.50657L30.2945 1.82655L29.8387 2.17238L29.3927 2.54408L28.9596 2.9287L28.5523 3.32301L28.1774 3.72056L28.019 3.91126L27.8768 4.11811L27.7476 4.34436L27.6344 4.58353L27.5407 4.83564L27.4567 5.09744L27.392 5.36894L27.3435 5.6469L27.308 5.92809L27.2918 6.21252L27.2886 6.49371L27.3015 6.7749L27.3338 7.04963L27.3791 7.3179L27.4437 7.57647L27.5213 7.82211L27.5536 7.92876L27.5763 8.02573L27.5892 8.11946L27.5956 8.20349L27.6053 8.50085L27.6118 8.56226L27.628 8.62367L27.6377 8.64952L27.6506 8.67861L27.6667 8.70447L27.6861 8.73033L27.7088 8.75618L27.7346 8.78204L27.796 8.83052L27.8768 8.87577L27.977 8.92102L28.5976 9.16343L29.2699 9.39614L29.6092 9.49957L29.9422 9.58684L30.2686 9.66117L30.5789 9.71289L30.9021 9.73874L31.2382 9.74198L31.9428 9.69026L32.6668 9.57067L33.3876 9.40584L34.0825 9.20545L34.7224 8.9889L35.2816 8.76911L35.7406 8.56549L34.0889 8.0128L33.1516 7.73484L32.6571 7.60555L32.1432 7.49243L31.9461 7.46011L31.7392 7.43425L31.5227 7.42132L31.2996 7.41486L31.0702 7.42132L30.8342 7.43425L30.3526 7.48273L29.8323 7.56677L29.5996 7.61848L29.3798 7.67343L28.9337 7.79948L28.4328 7.95785L27.615 8.21319L28.1289 7.80594L29.4218 6.82015Z" fill="url(#paint0_linear_224_424)"/>
<defs>
<linearGradient id="paint0_linear_224_424" x1="-1.74219" y1="46.1258" x2="87.7354" y2="39.8684" gradientUnits="userSpaceOnUse">
<stop stop-color="#A55906"/>
<stop offset="1" stop-color="#FECD51"/>
</linearGradient>
</defs>
</svg>
